<?xml version="1.0" encoding="UTF-8"?>
<svg width="126px" height="51px" viewBox="0 0 126 51" version="1.1" xmlns="http://www.w3.org/2000/svg" xmlns:xlink="http://www.w3.org/1999/xlink">
    <title>LOGOSERVIMSA</title>
    <g id="Page-1" stroke="none" stroke-width="1" fill="none" fill-rule="evenodd">
        <g id="Desktop-Copy-3" transform="translate(-50.000000, -30.000000)">
            <g id="LOGOSERVIMSA" transform="translate(50.000000, 30.000000)">
                <g id="Group" transform="translate(24.585366, 45.068027)" fill="#54565A" fill-rule="nonzero">
                    <polygon id="Path" points="0.0682926829 0.204081633 0.7 0.204081633 0.7 4.11564626 3.0902439 4.11564626 3.0902439 4.72789116 0.0682926829 4.72789116"></polygon>
                    <path d="M4.23414634,2.43197279 C4.23414634,2.12585034 4.28536585,1.81972789 4.40487805,1.53061224 C4.52439024,1.2414966 4.67804878,1.00340136 4.88292683,0.816326531 C5.08780488,0.612244898 5.32682927,0.459183673 5.61707317,0.357142857 C5.8902439,0.255102041 6.21463415,0.204081633 6.53902439,0.204081633 C6.8804878,0.204081633 7.18780488,0.238095238 7.47804878,0.340136054 C7.76829268,0.442176871 8.00731707,0.595238095 8.21219512,0.799319728 C8.41707317,1.00340136 8.57073171,1.2414966 8.6902439,1.51360544 C8.8097561,1.80272109 8.86097561,2.10884354 8.86097561,2.43197279 C8.86097561,2.77210884 8.8097561,3.07823129 8.6902439,3.36734694 C8.57073171,3.63945578 8.41707317,3.87755102 8.21219512,4.08163265 C8.00731707,4.28571429 7.76829268,4.43877551 7.47804878,4.54081633 C7.18780488,4.65986395 6.8804878,4.71088435 6.55609756,4.72789116 C6.23170732,4.71088435 5.94146341,4.64285714 5.66829268,4.54081633 C5.39512195,4.43877551 5.13902439,4.28571429 4.93414634,4.08163265 C4.72926829,3.89455782 4.55853659,3.65646259 4.43902439,3.38435374 C4.30243902,3.1122449 4.23414634,2.78911565 4.23414634,2.43197279 Z M4.9,2.43197279 C4.9,2.67006803 4.93414634,2.90816327 5.0195122,3.1122449 C5.10487805,3.31632653 5.20731707,3.50340136 5.34390244,3.65646259 C5.4804878,3.80952381 5.65121951,3.92857143 5.85609756,4.01360544 C6.06097561,4.09863946 6.28292683,4.14965986 6.53902439,4.14965986 C6.79512195,4.14965986 7.01707317,4.09863946 7.22195122,4.01360544 C7.42682927,3.92857143 7.59756098,3.80952381 7.73414634,3.65646259 C7.87073171,3.50340136 7.9902439,3.31632653 8.05853659,3.1122449 C8.12682927,2.90816327 8.17804878,2.67006803 8.17804878,2.43197279 C8.17804878,2.19387755 8.14390244,1.98979592 8.05853659,1.78571429 C7.9902439,1.58163265 7.87073171,1.41156463 7.73414634,1.2585034 C7.59756098,1.10544218 7.42682927,0.986394558 7.22195122,0.901360544 C7.01707317,0.816326531 6.79512195,0.765306122 6.53902439,0.765306122 C6.28292683,0.765306122 6.06097561,0.799319728 5.85609756,0.901360544 C5.65121951,0.986394558 5.4804878,1.10544218 5.34390244,1.2585034 C5.20731707,1.41156463 5.08780488,1.58163265 5.0195122,1.78571429 C4.93414634,1.98979592 4.9,2.21088435 4.9,2.43197279 Z" id="Shape"></path>
                    <path d="M12.497561,0.782312925 C12.2414634,0.782312925 12.0195122,0.816326531 11.8146341,0.918367347 C11.6097561,1.00340136 11.4390244,1.12244898 11.2853659,1.2755102 C11.1317073,1.42857143 11.0292683,1.59863946 10.9439024,1.80272109 C10.8585366,2.00680272 10.8243902,2.22789116 10.8243902,2.44897959 C10.8243902,2.70408163 10.8585366,2.92517007 10.9439024,3.1292517 C11.0292683,3.33333333 11.1317073,3.52040816 11.2853659,3.65646259 C11.4390244,3.80952381 11.6097561,3.92857143 11.8146341,4.03061224 C12.0195122,4.13265306 12.2414634,4.18367347 12.4804878,4.21768707 C12.7195122,4.21768707 12.9414634,4.21768707 13.1634146,4.18367347 C13.3853659,4.14965986 13.5560976,4.11564626 13.6756098,4.08163265 L13.6756098,2.75510204 L12.8219512,2.75510204 L12.8219512,2.17687075 C13.095122,2.17687075 13.3512195,2.17687075 13.5902439,2.17687075 C13.8292683,2.17687075 14.0853659,2.17687075 14.3756098,2.17687075 L14.3756098,4.57482993 C14.0853659,4.64285714 13.795122,4.67687075 13.4878049,4.71088435 C13.1804878,4.74489796 12.8560976,4.76190476 12.5146341,4.76190476 C12.1560976,4.76190476 11.8317073,4.71088435 11.5414634,4.60884354 C11.2512195,4.50680272 10.995122,4.3537415 10.7731707,4.14965986 C10.5682927,3.94557823 10.397561,3.70748299 10.2780488,3.43537415 C10.1585366,3.16326531 10.0902439,2.85714286 10.0902439,2.5170068 C10.0902439,2.15986395 10.1585366,1.8537415 10.2780488,1.56462585 C10.397561,1.29251701 10.5682927,1.05442177 10.7731707,0.850340136 C10.9780488,0.646258503 11.2341463,0.493197279 11.5414634,0.391156463 C11.8317073,0.289115646 12.1560976,0.221088435 12.5146341,0.221088435 C12.6682927,0.221088435 12.8219512,0.221088435 12.9585366,0.238095238 C13.095122,0.238095238 13.2487805,0.255102041 13.3682927,0.272108844 C13.504878,0.289115646 13.6414634,0.306122449 13.8121951,0.323129252 C13.9829268,0.340136054 14.1707317,0.37414966 14.3756098,0.408163265 L14.3756098,0.986394558 C13.5390244,0.833333333 12.9243902,0.782312925 12.497561,0.782312925 Z" id="Path"></path>
                    <polygon id="Path" points="15.9463415 0.204081633 16.6634146 0.204081633 16.6634146 4.74489796 15.9463415 4.74489796"></polygon>
                    <path d="M19.497561,4.72789116 C19.2414634,4.72789116 19.002439,4.72789116 18.7634146,4.69387755 C18.5414634,4.67687075 18.3365854,4.62585034 18.1658537,4.55782313 L18.1658537,4.01360544 C18.4219512,4.06462585 18.6268293,4.11564626 18.7634146,4.13265306 C18.9,4.16666667 19.002439,4.16666667 19.0707317,4.18367347 L19.5487805,4.18367347 C19.6512195,4.18367347 19.7536585,4.16666667 19.8731707,4.14965986 C19.9756098,4.11564626 20.0780488,4.08163265 20.1634146,4.03061224 C20.2487805,3.97959184 20.3170732,3.91156463 20.3682927,3.82653061 C20.4195122,3.7414966 20.4536585,3.65646259 20.4536585,3.53741497 C20.4365854,3.41836735 20.402439,3.31632653 20.3341463,3.23129252 C20.2658537,3.1462585 20.197561,3.07823129 20.095122,3.02721088 C20.0097561,2.97619048 19.8902439,2.92517007 19.7878049,2.87414966 C19.6682927,2.82312925 19.5487805,2.78911565 19.4292683,2.75510204 L19.2414634,2.70408163 L19.2414634,2.70408163 C19.104878,2.65306122 18.9682927,2.60204082 18.8487805,2.55102041 C18.7121951,2.5 18.6097561,2.43197279 18.5073171,2.34693878 C18.404878,2.26190476 18.3195122,2.14285714 18.2682927,2.00680272 C18.2,1.8707483 18.1658537,1.70068027 18.1658537,1.47959184 C18.1658537,1.2755102 18.2170732,1.08843537 18.3195122,0.93537415 C18.4219512,0.782312925 18.5414634,0.646258503 18.695122,0.544217687 C18.8487805,0.442176871 19.0365854,0.357142857 19.2243902,0.306122449 C19.4292683,0.255102041 19.6341463,0.221088435 19.8390244,0.221088435 C20.095122,0.221088435 20.3341463,0.221088435 20.5731707,0.255102041 C20.795122,0.272108844 21,0.323129252 21.1707317,0.408163265 L21.1707317,0.952380952 C20.7097561,0.867346939 20.402439,0.816326531 20.2658537,0.799319728 C20.197561,0.799319728 20.1292683,0.782312925 20.0439024,0.782312925 C19.9585366,0.782312925 19.8731707,0.782312925 19.7707317,0.782312925 C19.6682927,0.799319728 19.5658537,0.833333333 19.4634146,0.850340136 C19.3609756,0.867346939 19.2756098,0.918367347 19.2073171,0.952380952 C19.1219512,1.00340136 19.0707317,1.07142857 19.0195122,1.15646259 C18.9682927,1.2414966 18.9512195,1.34353741 18.9512195,1.47959184 C18.9512195,1.58163265 18.9682927,1.68367347 19.0365854,1.75170068 C19.0878049,1.81972789 19.1560976,1.8877551 19.2414634,1.93877551 C19.3268293,1.98979592 19.4292683,2.04081633 19.5317073,2.07482993 C19.6512195,2.10884354 19.7707317,2.14285714 19.8902439,2.19387755 C19.9243902,2.19387755 19.9585366,2.21088435 19.9926829,2.22789116 C20.0268293,2.24489796 20.0780488,2.24489796 20.1121951,2.26190476 C20.3,2.31292517 20.4878049,2.38095238 20.6414634,2.46598639 C20.795122,2.56802721 20.9317073,2.68707483 21.0341463,2.84013605 C21.1365854,2.99319728 21.2219512,3.23129252 21.2560976,3.53741497 C21.2560976,3.69047619 21.204878,3.84353741 21.1195122,4.01360544 C21.0341463,4.18367347 20.9146341,4.31972789 20.7609756,4.42176871 C20.6073171,4.52380952 20.4365854,4.60884354 20.2487805,4.65986395 C19.9926829,4.69387755 19.7707317,4.72789116 19.497561,4.72789116 Z" id="Path"></path>
                    <path d="M23.6121951,0.816326531 L22.1780488,0.816326531 L22.1780488,0.18707483 L25.7463415,0.18707483 L25.7463415,0.816326531 L24.3121951,0.816326531 C24.3121951,1.46258503 24.3121951,2.10884354 24.3121951,2.77210884 C24.3121951,3.43537415 24.3121951,4.08163265 24.3121951,4.72789116 L23.6121951,4.72789116 L23.6121951,0.816326531 Z" id="Path"></path>
                    <polygon id="Path" points="26.9414634 0.204081633 27.6414634 0.204081633 27.6414634 4.74489796 26.9414634 4.74489796"></polygon>
                    <path d="M29.8268293,2.46598639 C29.8268293,2.70408163 29.8609756,2.92517007 29.9463415,3.1122449 C30.0317073,3.31632653 30.1341463,3.48639456 30.2878049,3.63945578 C30.4243902,3.79251701 30.6121951,3.91156463 30.8170732,4.01360544 C31.0219512,4.09863946 31.2609756,4.16666667 31.5170732,4.18367347 C31.6195122,4.18367347 31.6878049,4.20068027 31.7731707,4.20068027 C31.8414634,4.20068027 31.9268293,4.20068027 31.995122,4.20068027 C32.0634146,4.20068027 32.1829268,4.18367347 32.3536585,4.13265306 C32.5243902,4.09863946 32.7804878,4.04761905 33.0878049,3.97959184 L33.0878049,4.54081633 C32.8487805,4.60884354 32.6097561,4.65986395 32.3536585,4.69387755 C32.097561,4.71088435 31.8243902,4.72789116 31.5170732,4.72789116 C31.1585366,4.72789116 30.8512195,4.67687075 30.5439024,4.57482993 C30.2536585,4.47278912 29.997561,4.30272109 29.7756098,4.09863946 C29.5707317,3.89455782 29.4,3.65646259 29.2804878,3.36734694 C29.1609756,3.07823129 29.0926829,2.77210884 29.0926829,2.46598639 C29.0926829,2.14285714 29.1609756,1.83673469 29.2804878,1.56462585 C29.4,1.2755102 29.5707317,1.03741497 29.7756098,0.833333333 C29.997561,0.629251701 30.2536585,0.476190476 30.5439024,0.37414966 C30.8341463,0.272108844 31.1585366,0.221088435 31.5170732,0.221088435 C31.8243902,0.221088435 32.1146341,0.238095238 32.3536585,0.255102041 C32.6097561,0.272108844 32.8487805,0.323129252 33.0878049,0.408163265 L33.0878049,0.969387755 C32.7804878,0.901360544 32.5414634,0.850340136 32.3536585,0.816326531 C32.1829268,0.782312925 32.0634146,0.765306122 31.995122,0.765306122 C31.9268293,0.765306122 31.8585366,0.765306122 31.7731707,0.765306122 C31.704878,0.765306122 31.6195122,0.765306122 31.5170732,0.782312925 C31.2609756,0.799319728 31.0219512,0.867346939 30.8170732,0.952380952 C30.6121951,1.03741497 30.4243902,1.17346939 30.2878049,1.32653061 C30.1512195,1.47959184 30.0317073,1.64965986 29.9463415,1.8537415 C29.8609756,2.02380952 29.8268293,2.22789116 29.8268293,2.46598639 Z" id="Path"></path>
                    <path d="M35.5292683,4.72789116 C35.2731707,4.72789116 35.0170732,4.72789116 34.795122,4.69387755 C34.5731707,4.67687075 34.3682927,4.62585034 34.197561,4.55782313 L34.197561,4.01360544 C34.4536585,4.06462585 34.6585366,4.11564626 34.795122,4.13265306 C34.9317073,4.16666667 35.0341463,4.16666667 35.102439,4.18367347 L35.5804878,4.18367347 C35.6829268,4.18367347 35.7853659,4.16666667 35.904878,4.14965986 C36.0073171,4.11564626 36.1097561,4.08163265 36.195122,4.03061224 C36.2804878,3.97959184 36.3487805,3.91156463 36.4,3.82653061 C36.4512195,3.7414966 36.4853659,3.65646259 36.4853659,3.53741497 C36.4682927,3.41836735 36.4341463,3.31632653 36.3658537,3.23129252 C36.297561,3.1462585 36.2292683,3.07823129 36.1268293,3.02721088 C36.0414634,2.97619048 35.9219512,2.92517007 35.8195122,2.87414966 C35.7,2.82312925 35.5804878,2.78911565 35.4609756,2.75510204 L35.2731707,2.70408163 L35.2731707,2.70408163 C35.1365854,2.65306122 35,2.60204082 34.8804878,2.55102041 C34.7609756,2.5 34.6414634,2.43197279 34.5390244,2.34693878 C34.4365854,2.26190476 34.3512195,2.14285714 34.3,2.00680272 C34.2317073,1.8707483 34.2146341,1.70068027 34.2146341,1.47959184 C34.2146341,1.2755102 34.2658537,1.08843537 34.3682927,0.93537415 C34.4707317,0.782312925 34.5902439,0.646258503 34.7439024,0.544217687 C34.897561,0.442176871 35.0682927,0.357142857 35.2731707,0.306122449 C35.4780488,0.255102041 35.6829268,0.221088435 35.8878049,0.221088435 C36.1439024,0.221088435 36.4,0.221088435 36.6219512,0.255102041 C36.8439024,0.272108844 37.0487805,0.323129252 37.2195122,0.408163265 L37.2195122,0.952380952 C36.7585366,0.867346939 36.4512195,0.816326531 36.297561,0.799319728 C36.2292683,0.799319728 36.1609756,0.782312925 36.0756098,0.782312925 C35.9902439,0.782312925 35.904878,0.782312925 35.802439,0.782312925 C35.7,0.799319728 35.597561,0.833333333 35.495122,0.850340136 C35.3926829,0.867346939 35.3073171,0.918367347 35.2390244,0.952380952 C35.1707317,1.00340136 35.102439,1.07142857 35.0512195,1.15646259 C35,1.2414966 34.9829268,1.34353741 34.9829268,1.47959184 C34.9829268,1.58163265 35,1.68367347 35.0682927,1.75170068 C35.1195122,1.81972789 35.1878049,1.8877551 35.2731707,1.93877551 C35.3585366,1.98979592 35.4609756,2.04081633 35.5634146,2.07482993 C35.6829268,2.10884354 35.802439,2.14285714 35.9219512,2.19387755 C35.9560976,2.19387755 35.9902439,2.21088435 36.0243902,2.22789116 C36.0585366,2.24489796 36.1097561,2.24489796 36.1439024,2.26190476 C36.3317073,2.31292517 36.5195122,2.38095238 36.6731707,2.46598639 C36.8268293,2.56802721 36.9634146,2.68707483 37.0658537,2.84013605 C37.1682927,2.99319728 37.2536585,3.23129252 37.2878049,3.53741497 C37.2878049,3.69047619 37.2365854,3.84353741 37.1512195,4.01360544 C37.0658537,4.18367347 36.9463415,4.31972789 36.7926829,4.42176871 C36.6390244,4.52380952 36.4682927,4.60884354 36.2804878,4.65986395 C36.0243902,4.69387755 35.802439,4.72789116 35.5292683,4.72789116 Z" id="Path"></path>
                    <path d="M44.3390244,3.69047619 C44.4926829,3.84353741 44.6463415,4.03061224 44.8170732,4.20068027 C44.9878049,4.3877551 45.1414634,4.55782313 45.295122,4.72789116 L44.4414634,4.72789116 L43.9121951,4.14965986 C43.7073171,4.3877551 43.502439,4.55782313 43.2804878,4.67687075 C43.0585366,4.79591837 42.8195122,4.84693878 42.5121951,4.84693878 C42.3073171,4.84693878 42.1195122,4.81292517 41.9317073,4.76190476 C41.7439024,4.71088435 41.5902439,4.62585034 41.4365854,4.50680272 C41.3,4.3877551 41.1804878,4.25170068 41.095122,4.09863946 C41.0097561,3.92857143 40.9585366,3.7414966 40.9585366,3.52040816 C40.9585366,3.36734694 40.9926829,3.23129252 41.0439024,3.1122449 C41.095122,2.97619048 41.1804878,2.85714286 41.2658537,2.73809524 C41.3682927,2.61904762 41.4707317,2.53401361 41.6073171,2.44897959 C41.7439024,2.36394558 41.8804878,2.29591837 42.0341463,2.22789116 C41.8634146,2.04081633 41.7268293,1.8707483 41.6073171,1.70068027 C41.4878049,1.53061224 41.4365854,1.32653061 41.4365854,1.10544218 C41.4365854,0.918367347 41.4707317,0.765306122 41.5390244,0.629251701 C41.6073171,0.493197279 41.7097561,0.37414966 41.8292683,0.289115646 C41.9487805,0.204081633 42.0853659,0.136054422 42.2390244,0.0850340136 C42.3926829,0.0340136054 42.5634146,0.0170068027 42.7341463,0.0170068027 C42.904878,0.0170068027 43.0585366,0.0340136054 43.2121951,0.0850340136 C43.3658537,0.136054422 43.502439,0.18707483 43.6219512,0.272108844 C43.7414634,0.357142857 43.8268293,0.459183673 43.895122,0.595238095 C43.9634146,0.731292517 43.997561,0.884353741 43.997561,1.07142857 C43.997561,1.20748299 43.9634146,1.34353741 43.9121951,1.46258503 C43.8609756,1.58163265 43.7756098,1.70068027 43.6902439,1.78571429 C43.5878049,1.8877551 43.4853659,1.97278912 43.3658537,2.05782313 C43.2463415,2.14285714 43.1268293,2.21088435 43.0073171,2.26190476 L43.895122,3.21428571 C43.9804878,3.0952381 44.0658537,2.95918367 44.1682927,2.80612245 C44.2707317,2.65306122 44.3560976,2.5170068 44.4414634,2.38095238 L45.2268293,2.38095238 L44.3390244,3.69047619 Z M42.4439024,2.58503401 C42.3585366,2.63605442 42.2731707,2.70408163 42.1878049,2.75510204 C42.102439,2.80612245 42.0170732,2.87414966 41.9487805,2.94217687 C41.8804878,3.01020408 41.8292683,3.0952381 41.7780488,3.18027211 C41.7439024,3.26530612 41.7097561,3.36734694 41.7097561,3.48639456 C41.7097561,3.60544218 41.7268293,3.70748299 41.7780488,3.79251701 C41.8292683,3.89455782 41.8804878,3.96258503 41.9487805,4.03061224 C42.0170732,4.09863946 42.102439,4.14965986 42.204878,4.20068027 C42.3073171,4.23469388 42.4097561,4.25170068 42.5121951,4.25170068 C42.6146341,4.25170068 42.7,4.23469388 42.7853659,4.20068027 C42.8707317,4.16666667 42.9560976,4.13265306 43.0414634,4.08163265 C43.1268293,4.03061224 43.195122,3.97959184 43.2634146,3.91156463 C43.3317073,3.84353741 43.4,3.7755102 43.4682927,3.7244898 L42.4439024,2.58503401 Z M42.7512195,0.612244898 C42.5634146,0.612244898 42.4268293,0.663265306 42.2902439,0.765306122 C42.1707317,0.867346939 42.102439,0.986394558 42.102439,1.15646259 C42.102439,1.2244898 42.1195122,1.29251701 42.1536585,1.36054422 C42.1878049,1.42857143 42.2219512,1.49659864 42.2731707,1.56462585 C42.3243902,1.63265306 42.3756098,1.70068027 42.4439024,1.75170068 C42.5121951,1.81972789 42.5634146,1.8707483 42.6317073,1.92176871 C42.7,1.8877551 42.7853659,1.83673469 42.8707317,1.78571429 C42.9560976,1.73469388 43.0243902,1.68367347 43.1097561,1.61564626 C43.1780488,1.54761905 43.2463415,1.47959184 43.2804878,1.39455782 C43.3317073,1.30952381 43.3487805,1.2244898 43.3487805,1.12244898 C43.3487805,0.969387755 43.297561,0.850340136 43.1780488,0.765306122 C43.0585366,0.663265306 42.9219512,0.612244898 42.7512195,0.612244898 Z" id="Shape"></path>
                    <path d="M50.2121951,4.72789116 C49.9560976,4.72789116 49.7170732,4.72789116 49.4780488,4.69387755 C49.2560976,4.67687075 49.0512195,4.62585034 48.8804878,4.55782313 L48.8804878,4.01360544 C49.1365854,4.06462585 49.3414634,4.11564626 49.4780488,4.13265306 C49.6146341,4.16666667 49.7341463,4.16666667 49.7853659,4.18367347 L50.2634146,4.18367347 C50.3658537,4.18367347 50.4853659,4.16666667 50.5878049,4.14965986 C50.6902439,4.11564626 50.7926829,4.08163265 50.8780488,4.03061224 C50.9634146,3.97959184 51.0317073,3.91156463 51.0829268,3.82653061 C51.1341463,3.7414966 51.1682927,3.65646259 51.1682927,3.53741497 C51.1512195,3.41836735 51.1170732,3.31632653 51.0487805,3.23129252 C50.9804878,3.1462585 50.895122,3.07823129 50.8097561,3.02721088 C50.7243902,2.97619048 50.604878,2.92517007 50.502439,2.87414966 C50.3829268,2.82312925 50.2634146,2.78911565 50.1439024,2.75510204 L49.9560976,2.70408163 L49.9560976,2.70408163 C49.8195122,2.65306122 49.6829268,2.60204082 49.5634146,2.55102041 C49.4268293,2.5 49.3243902,2.43197279 49.2219512,2.34693878 C49.1195122,2.26190476 49.0341463,2.14285714 48.9829268,2.00680272 C48.9146341,1.8707483 48.897561,1.70068027 48.897561,1.47959184 C48.897561,1.2755102 48.9487805,1.08843537 49.0341463,0.93537415 C49.1365854,0.782312925 49.2560976,0.646258503 49.4097561,0.544217687 C49.5634146,0.442176871 49.7512195,0.357142857 49.9390244,0.306122449 C50.1439024,0.255102041 50.3487805,0.221088435 50.5536585,0.221088435 C50.8097561,0.221088435 51.0487805,0.221088435 51.2878049,0.255102041 C51.5097561,0.272108844 51.7146341,0.323129252 51.8853659,0.408163265 L51.8853659,0.952380952 C51.4243902,0.867346939 51.1170732,0.816326531 50.9804878,0.799319728 C50.9121951,0.799319728 50.8439024,0.782312925 50.7585366,0.782312925 C50.6731707,0.782312925 50.5878049,0.782312925 50.4853659,0.782312925 C50.3829268,0.799319728 50.2804878,0.833333333 50.1780488,0.850340136 C50.0756098,0.867346939 49.9902439,0.918367347 49.9219512,0.952380952 C49.8365854,1.00340136 49.7853659,1.07142857 49.7341463,1.15646259 C49.6829268,1.2414966 49.6658537,1.34353741 49.6658537,1.47959184 C49.6658537,1.58163265 49.6829268,1.68367347 49.7341463,1.75170068 C49.7853659,1.81972789 49.8536585,1.8877551 49.9390244,1.93877551 C50.0243902,1.98979592 50.1268293,2.04081633 50.2292683,2.07482993 C50.3487805,2.10884354 50.4682927,2.14285714 50.5878049,2.19387755 C50.6219512,2.19387755 50.6560976,2.21088435 50.7073171,2.22789116 C50.7414634,2.24489796 50.7756098,2.24489796 50.8268293,2.26190476 C51.0146341,2.31292517 51.202439,2.38095238 51.3560976,2.46598639 C51.5097561,2.56802721 51.6463415,2.68707483 51.7487805,2.84013605 C51.8512195,2.99319728 51.9195122,3.23129252 51.9707317,3.53741497 C51.9707317,3.69047619 51.9195122,3.84353741 51.8341463,4.01360544 C51.7487805,4.18367347 51.6292683,4.31972789 51.4756098,4.42176871 C51.3219512,4.52380952 51.1512195,4.60884354 50.9634146,4.65986395 C50.7243902,4.69387755 50.4853659,4.72789116 50.2121951,4.72789116 Z" id="Path"></path>
                    <polygon id="Path" points="56.3414634 2.15986395 56.3414634 2.77210884 54.002439 2.77210884 54.002439 4.11564626 56.3414634 4.11564626 56.3414634 4.72789116 53.3707317 4.72789116 53.3707317 0.18707483 56.3414634 0.18707483 56.3414634 0.816326531 54.002439 0.816326531 54.002439 2.15986395"></polygon>
                    <path d="M58.6121951,0.799319728 L58.6121951,4.74489796 L57.9121951,4.74489796 L57.9121951,0.204081633 L59.5853659,0.204081633 C59.7390244,0.204081633 59.9097561,0.221088435 60.0804878,0.238095238 C60.2512195,0.272108844 60.4219512,0.340136054 60.5926829,0.442176871 C60.7634146,0.544217687 60.9,0.680272109 60.9853659,0.850340136 C61.0707317,1.02040816 61.104878,1.2414966 61.104878,1.49659864 C61.104878,1.75170068 61.0707317,1.95578231 60.9853659,2.12585034 C60.9,2.29591837 60.7634146,2.43197279 60.5926829,2.53401361 C60.404878,2.65306122 60.2170732,2.72108844 59.995122,2.75510204 C60.0804878,2.90816327 60.1829268,3.06122449 60.2853659,3.23129252 C60.3878049,3.40136054 60.4902439,3.57142857 60.5926829,3.7414966 C60.695122,3.91156463 60.797561,4.08163265 60.9,4.25170068 C61.002439,4.42176871 61.104878,4.57482993 61.1902439,4.72789116 L60.5073171,4.72789116 C60.2682927,4.3537415 60.0463415,3.97959184 59.8243902,3.60544218 C59.602439,3.23129252 59.3634146,2.87414966 59.1414634,2.4829932 L59.1414634,2.21088435 L59.6707317,2.21088435 C59.8414634,2.21088435 59.9780488,2.19387755 60.097561,2.14285714 C60.2,2.09183673 60.302439,2.02380952 60.3878049,1.9047619 C60.4902439,1.78571429 60.5414634,1.64965986 60.5414634,1.47959184 C60.5243902,1.34353741 60.4902439,1.2414966 60.4390244,1.15646259 C60.3878049,1.07142857 60.3195122,0.986394558 60.2512195,0.93537415 C60.1658537,0.884353741 60.0804878,0.833333333 59.9780488,0.816326531 C59.8756098,0.799319728 59.7731707,0.782312925 59.6536585,0.782312925 L58.6121951,0.782312925 L58.6121951,0.799319728 Z" id="Path"></path>
                    <path d="M62.0439024,0.204081633 L62.8804878,0.204081633 L64.1780488,3.7755102 C64.4,3.19727891 64.6219512,2.60204082 64.8780488,1.98979592 C65.1170732,1.37755102 65.3560976,0.782312925 65.5780488,0.204081633 L66.3292683,0.204081633 C66.0219512,0.969387755 65.7146341,1.73469388 65.4073171,2.46598639 C65.1,3.19727891 64.7926829,3.96258503 64.4853659,4.72789116 L63.8536585,4.72789116 L62.0439024,0.204081633 Z" id="Path"></path>
                    <polygon id="Path" points="67.4560976 0.204081633 68.1560976 0.204081633 68.1560976 4.74489796 67.4560976 4.74489796"></polygon>
                    <path d="M70.3585366,2.46598639 C70.3585366,2.70408163 70.3926829,2.92517007 70.4780488,3.1122449 C70.5634146,3.31632653 70.6658537,3.48639456 70.8195122,3.63945578 C70.9560976,3.79251701 71.1439024,3.91156463 71.3487805,4.01360544 C71.5536585,4.09863946 71.7926829,4.16666667 72.0487805,4.18367347 C72.1512195,4.18367347 72.2365854,4.20068027 72.304878,4.20068027 C72.3731707,4.20068027 72.4585366,4.20068027 72.5268293,4.20068027 C72.595122,4.20068027 72.7146341,4.18367347 72.8853659,4.13265306 C73.0560976,4.09863946 73.3121951,4.04761905 73.6195122,3.97959184 L73.6195122,4.54081633 C73.3804878,4.60884354 73.1414634,4.65986395 72.8853659,4.69387755 C72.6292683,4.71088435 72.3560976,4.72789116 72.0487805,4.72789116 C71.6902439,4.72789116 71.3829268,4.67687075 71.0756098,4.57482993 C70.7853659,4.47278912 70.5292683,4.30272109 70.3073171,4.09863946 C70.102439,3.89455782 69.9317073,3.65646259 69.8121951,3.36734694 C69.6926829,3.07823129 69.6243902,2.77210884 69.6243902,2.46598639 C69.6243902,2.14285714 69.6926829,1.83673469 69.8121951,1.56462585 C69.9317073,1.2755102 70.102439,1.03741497 70.3073171,0.833333333 C70.5292683,0.629251701 70.7853659,0.476190476 71.0756098,0.37414966 C71.3658537,0.272108844 71.6902439,0.221088435 72.0487805,0.221088435 C72.3560976,0.221088435 72.6463415,0.238095238 72.8853659,0.255102041 C73.1414634,0.272108844 73.3804878,0.323129252 73.6195122,0.408163265 L73.6195122,0.969387755 C73.3121951,0.901360544 73.0731707,0.850340136 72.8853659,0.816326531 C72.7146341,0.782312925 72.595122,0.765306122 72.5268293,0.765306122 C72.4585366,0.765306122 72.3902439,0.765306122 72.304878,0.765306122 C72.2195122,0.765306122 72.1512195,0.765306122 72.0487805,0.782312925 C71.7926829,0.799319728 71.5536585,0.867346939 71.3487805,0.952380952 C71.1439024,1.03741497 70.9560976,1.17346939 70.8195122,1.32653061 C70.6829268,1.47959184 70.5634146,1.64965986 70.4780488,1.8537415 C70.3926829,2.02380952 70.3585366,2.22789116 70.3585366,2.46598639 Z" id="Path"></path>
                    <polygon id="Path" points="77.8878049 2.15986395 77.8878049 2.77210884 75.5487805 2.77210884 75.5487805 4.11564626 77.8878049 4.11564626 77.8878049 4.72789116 74.9170732 4.72789116 74.9170732 0.18707483 77.8878049 0.18707483 77.8878049 0.816326531 75.5487805 0.816326531 75.5487805 2.15986395"></polygon>
                    <path d="M80.5853659,4.72789116 C80.3292683,4.72789116 80.0902439,4.72789116 79.8512195,4.69387755 C79.6292683,4.67687075 79.4243902,4.62585034 79.2536585,4.55782313 L79.2536585,4.01360544 C79.5097561,4.06462585 79.7146341,4.11564626 79.8512195,4.13265306 C79.9878049,4.16666667 80.0902439,4.16666667 80.1585366,4.18367347 L80.6365854,4.18367347 C80.7390244,4.18367347 80.8585366,4.16666667 80.9609756,4.14965986 C81.0634146,4.11564626 81.1658537,4.08163265 81.2512195,4.03061224 C81.3365854,3.97959184 81.404878,3.91156463 81.4560976,3.82653061 C81.5073171,3.7414966 81.5414634,3.65646259 81.5414634,3.53741497 C81.5243902,3.41836735 81.4902439,3.31632653 81.4219512,3.23129252 C81.3536585,3.1462585 81.2853659,3.07823129 81.1829268,3.02721088 C81.097561,2.97619048 80.9780488,2.92517007 80.8756098,2.87414966 C80.7560976,2.82312925 80.6365854,2.78911565 80.5170732,2.75510204 L80.3292683,2.70408163 L80.3292683,2.70408163 C80.1926829,2.65306122 80.0560976,2.60204082 79.9365854,2.55102041 C79.8,2.5 79.697561,2.43197279 79.595122,2.34693878 C79.4926829,2.26190476 79.4073171,2.14285714 79.3560976,2.00680272 C79.2878049,1.8707483 79.2536585,1.70068027 79.2536585,1.47959184 C79.2536585,1.2755102 79.304878,1.08843537 79.4073171,0.93537415 C79.5097561,0.782312925 79.6292683,0.646258503 79.7829268,0.544217687 C79.9365854,0.442176871 80.1243902,0.357142857 80.3121951,0.306122449 C80.5170732,0.255102041 80.7219512,0.221088435 80.9097561,0.221088435 C81.1658537,0.221088435 81.404878,0.221088435 81.6439024,0.255102041 C81.8658537,0.272108844 82.0707317,0.323129252 82.2414634,0.408163265 L82.2414634,0.952380952 C81.7804878,0.867346939 81.4731707,0.816326531 81.3365854,0.799319728 C81.2682927,0.799319728 81.2,0.782312925 81.1146341,0.782312925 C81.0292683,0.782312925 80.9439024,0.782312925 80.8414634,0.782312925 C80.7390244,0.799319728 80.6365854,0.833333333 80.5341463,0.850340136 C80.4317073,0.867346939 80.3463415,0.918367347 80.2609756,0.952380952 C80.1926829,1.00340136 80.1243902,1.07142857 80.0731707,1.15646259 C80.0219512,1.2414966 80.004878,1.34353741 80.004878,1.47959184 C80.004878,1.58163265 80.0219512,1.68367347 80.0902439,1.75170068 C80.1414634,1.81972789 80.2097561,1.8877551 80.295122,1.93877551 C80.3804878,1.98979592 80.4829268,2.04081633 80.5853659,2.07482993 C80.704878,2.10884354 80.8243902,2.14285714 80.9439024,2.19387755 C80.9780488,2.19387755 81.0121951,2.21088435 81.0463415,2.22789116 C81.0804878,2.24489796 81.1317073,2.24489796 81.1658537,2.26190476 C81.3536585,2.31292517 81.5414634,2.38095238 81.695122,2.46598639 C81.8487805,2.56802721 81.9853659,2.68707483 82.0878049,2.84013605 C82.1902439,2.99319728 82.2756098,3.23129252 82.3097561,3.53741497 C82.3097561,3.69047619 82.2585366,3.84353741 82.1731707,4.01360544 C82.0878049,4.18367347 81.9682927,4.31972789 81.8146341,4.42176871 C81.6609756,4.52380952 81.4902439,4.60884354 81.302439,4.65986395 C81.097561,4.69387755 80.8585366,4.72789116 80.5853659,4.72789116 Z" id="Path"></path>
                </g>
                <path d="M112.170732,41.1394558 L117.736585,41.1394558 C117.736585,41.1394558 135.04878,4.96598639 119.187805,0.680272109 C119.187805,0.680272109 102.353659,-5.85034014 65.202439,25.2891156 C65.202439,25.2891156 96.9585366,1.98979592 110.839024,9.72789116 C124.395122,17.2789116 112.170732,41.1394558 112.170732,41.1394558 Z" id="Path" fill="#941D20" fill-rule="nonzero"></path>
                <g id="Group" transform="translate(0.000000, 22.789116)" fill="#595858" fill-rule="nonzero">
                    <path d="M5.68536585,18.4693878 C4.59268293,18.4863946 3.60243902,18.4353741 2.6804878,18.3163265 C1.75853659,18.1972789 0.92195122,17.9591837 0.136585366,17.6190476 L0.136585366,14.5408163 C1.2804878,14.7959184 2.18536585,14.9829932 2.85121951,15.1020408 C3.51707317,15.2210884 3.94390244,15.2891156 4.16585366,15.3061224 L5.95853659,15.3061224 C6.28292683,15.3061224 6.60731707,15.2721088 6.94878049,15.170068 C7.27317073,15.085034 7.5804878,14.9659864 7.85365854,14.7959184 C8.12682927,14.6258503 8.34878049,14.4387755 8.5195122,14.2006803 C8.6902439,13.962585 8.79268293,13.6904762 8.8097561,13.3843537 C8.72439024,13.0612245 8.57073171,12.7721088 8.34878049,12.5170068 C8.12682927,12.2619048 7.85365854,12.0408163 7.51219512,11.8367347 C7.18780488,11.6326531 6.82926829,11.4455782 6.43658537,11.292517 C6.04390244,11.1394558 5.65121951,10.9863946 5.22439024,10.8503401 L4.47317073,10.6462585 C3.92682927,10.4421769 3.3804878,10.2210884 2.85121951,9.9829932 C2.32195122,9.74489796 1.86097561,9.45578231 1.43414634,9.09863946 C1.02439024,8.7414966 0.682926829,8.26530612 0.443902439,7.68707483 C0.187804878,7.10884354 0.0682926829,6.36054422 0.0682926829,5.45918367 C0.0682926829,4.57482993 0.256097561,3.80952381 0.648780488,3.1462585 C1.04146341,2.4829932 1.55365854,1.93877551 2.18536585,1.49659864 C2.81707317,1.05442177 3.55121951,0.731292517 4.37073171,0.510204082 C5.1902439,0.289115646 6.02682927,0.170068027 6.86341463,0.170068027 C7.95609756,0.153061224 8.94634146,0.204081633 9.86829268,0.323129252 C10.7902439,0.442176871 11.6268293,0.680272109 12.4121951,1.02040816 L12.4121951,4.08163265 C11.2853659,3.84353741 10.397561,3.65646259 9.71463415,3.53741497 C9.04878049,3.41836735 8.60487805,3.35034014 8.4,3.35034014 C8.16097561,3.33333333 7.90487805,3.33333333 7.61463415,3.33333333 C7.34146341,3.33333333 7.03414634,3.33333333 6.67560976,3.33333333 C6.33414634,3.38435374 5.99268293,3.45238095 5.65121951,3.52040816 C5.3097561,3.60544218 5.0195122,3.70748299 4.76341463,3.86054422 C4.50731707,4.01360544 4.30243902,4.21768707 4.14878049,4.47278912 C3.99512195,4.72789116 3.9097561,5.05102041 3.9097561,5.45918367 C3.9097561,5.74829932 4.01219512,6.00340136 4.2,6.2244898 C4.38780488,6.44557823 4.64390244,6.64965986 4.93414634,6.83673469 C5.24146341,7.02380952 5.58292683,7.17687075 5.95853659,7.31292517 C6.33414634,7.44897959 6.7097561,7.58503401 7.10243902,7.70408163 C7.23902439,7.73809524 7.37560976,7.78911565 7.52926829,7.84013605 C7.68292683,7.90816327 7.8195122,7.94217687 7.95609756,7.97619048 L7.95609756,7.99319728 C8.70731707,8.21428571 9.40731707,8.52040816 10.0560976,8.92857143 C10.704878,9.31972789 11.2682927,9.82993197 11.7121951,10.4421769 C12.1390244,11.0884354 12.4634146,12.0578231 12.6512195,13.3673469 C12.6512195,13.9965986 12.4634146,14.6768707 12.104878,15.3911565 C11.7463415,16.1054422 11.2170732,16.7006803 10.5170732,17.1598639 C9.88536585,17.6020408 9.18536585,17.9251701 8.43414634,18.1292517 C7.7,18.3163265 6.77804878,18.4353741 5.68536585,18.4693878 Z" id="Path"></path>
                    <path d="M21.7341463,15.6972789 C22.0926829,15.6802721 22.4,15.6632653 22.6390244,15.6462585 C22.8780488,15.6292517 23.0658537,15.6122449 23.202439,15.5952381 C23.3390244,15.5612245 23.7317073,15.4761905 24.3804878,15.3401361 C25.0292683,15.2040816 25.8317073,15.0340136 26.804878,14.829932 L26.804878,17.5340136 C26.3609756,17.7040816 25.9,17.8401361 25.4219512,17.9591837 C24.9439024,18.0782313 24.4829268,18.1632653 24.0390244,18.2482993 C23.595122,18.3333333 23.1682927,18.3843537 22.7756098,18.4183673 C22.3829268,18.452381 22.0243902,18.4693878 21.7170732,18.4693878 C20.7268293,18.4353741 19.8560976,18.2993197 19.104878,18.0782313 C18.3365854,17.8571429 17.6195122,17.4829932 16.9195122,16.9387755 C16.2365854,16.4115646 15.7073171,15.7482993 15.3487805,14.9319728 C14.9902439,14.1326531 14.8195122,13.2482993 14.8195122,12.2619048 C14.8195122,11.2755102 14.9902439,10.3911565 15.3487805,9.59183673 C15.7073171,8.79251701 16.1853659,8.1122449 16.7829268,7.53401361 C17.3804878,6.97278912 18.097561,6.53061224 18.9341463,6.2244898 C19.7707317,5.91836735 20.6414634,5.76530612 21.5804878,5.76530612 C22.4512195,5.76530612 23.2365854,5.91836735 23.9536585,6.2244898 C24.6707317,6.53061224 25.2853659,6.95578231 25.8146341,7.53401361 C26.3268293,8.0952381 26.7365854,8.80952381 27.0268293,9.64285714 C27.3170732,10.4761905 27.4536585,11.4285714 27.4536585,12.5 L27.4536585,13.5884354 L18.3878049,13.5884354 C18.5414634,14.1496599 18.9,14.6258503 19.4463415,15 C19.9756098,15.3571429 20.7439024,15.5952381 21.7341463,15.6972789 Z M21.2902439,8.62244898 C20.402439,8.62244898 19.7365854,8.82653061 19.2585366,9.25170068 C18.7804878,9.67687075 18.4902439,10.1870748 18.3707317,10.8163265 L23.902439,10.8163265 C23.7658537,10.2040816 23.4585366,9.67687075 22.997561,9.23469388 C22.5365854,8.82653061 21.9731707,8.60544218 21.2902439,8.62244898 Z M23.9536585,11.0544218 C23.9365854,11.0204082 23.9365854,10.9863946 23.9365854,10.9353741 C23.9365854,10.9013605 23.9365854,10.8503401 23.902439,10.8163265 L24.1926829,10.8163265 L23.9536585,10.9693878 L23.9536585,11.0544218 Z" id="Shape"></path>
                    <path d="M37.0146341,9.11564626 C36.9121951,9.09863946 36.8097561,9.08163265 36.7243902,9.08163265 C36.6390244,9.08163265 36.5536585,9.06462585 36.4682927,9.06462585 L36.4512195,9.08163265 C35.8536585,9.06462585 35.3756098,9.14965986 35.0170732,9.33673469 C34.6756098,9.52380952 34.402439,9.79591837 34.2146341,10.1360544 C34.0439024,10.4761905 33.9243902,10.7993197 33.8560976,11.122449 C33.7878049,11.4285714 33.7536585,11.5986395 33.7536585,11.6156463 L33.7536585,18.452381 L30.2536585,18.452381 L30.2536585,5.78231293 L33.7536585,5.78231293 L33.804878,7.17687075 C34.1804878,6.68367347 34.6073171,6.30952381 35.0682927,6.08843537 C35.5292683,5.86734694 35.9902439,5.74829932 36.4341463,5.74829932 C36.8780488,5.76530612 37.3390244,5.81632653 37.8,5.88435374 C38.2609756,5.96938776 38.704878,6.08843537 39.1146341,6.29251701 L39.1146341,9.54081633 C38.5170732,9.4047619 38.0219512,9.30272109 37.6634146,9.23469388 C37.3390244,9.18367347 37.1,9.13265306 37.0146341,9.11564626 Z" id="Path"></path>
                    <path d="M39.8658537,5.78231293 L43.6219512,5.78231293 L46.6780488,13.9455782 C47.1731707,12.6020408 47.6853659,11.2414966 48.197561,9.86394558 C48.7097561,8.48639456 49.2219512,7.12585034 49.7170732,5.78231293 L53.3365854,5.78231293 L48.4707317,18.452381 L44.9536585,18.452381 L39.8658537,5.78231293 Z" id="Path"></path>
                    <path d="M55.0097561,0.391156463 L58.5268293,0.391156463 L58.5268293,3.91156463 L55.0097561,3.91156463 L55.0097561,0.391156463 Z M55.0097561,5.78231293 L58.5268293,5.78231293 L58.5268293,18.452381 L55.0268293,18.452381 L55.0097561,5.78231293 Z" id="Shape"></path>
                    <path d="M65.1170732,18.4693878 L61.7536585,18.4693878 L61.7536585,5.76530612 L65.1,5.76530612 L65.1341463,7.31292517 C65.4756098,6.8707483 65.9365854,6.49659864 66.5,6.2244898 C67.0634146,5.95238095 67.7463415,5.79931973 68.5658537,5.76530612 C69.2487805,5.73129252 69.8463415,5.88435374 70.4097561,6.20748299 C70.9560976,6.53061224 71.4341463,7.05782313 71.8097561,7.78911565 C72.202439,7.44897959 72.5780488,7.14285714 72.9195122,6.8877551 C73.2609756,6.63265306 73.6195122,6.41156463 73.9609756,6.2585034 C74.3195122,6.08843537 74.6780488,5.96938776 75.0365854,5.90136054 C75.395122,5.81632653 75.804878,5.78231293 76.2487805,5.78231293 C77.0853659,5.78231293 77.7853659,5.91836735 78.3658537,6.19047619 C78.9463415,6.46258503 79.4073171,6.83673469 79.7829268,7.32993197 C80.1414634,7.80612245 80.4146341,8.38435374 80.5682927,9.03061224 C80.7390244,9.67687075 80.8073171,10.3911565 80.8073171,11.1394558 L80.8073171,18.4693878 L77.4609756,18.4693878 L77.4609756,11.4795918 C77.4609756,11.0204082 77.4268293,10.6632653 77.3414634,10.4081633 C77.2560976,10.1530612 77.1536585,9.91496599 77.0170732,9.67687075 C76.8804878,9.45578231 76.6585366,9.26870748 76.3853659,9.14965986 C76.095122,9.01360544 75.702439,8.96258503 75.2073171,8.96258503 C74.7121951,8.96258503 74.3195122,9.03061224 74.0292683,9.14965986 C73.7390244,9.28571429 73.5341463,9.45578231 73.397561,9.67687075 C73.2609756,9.91496599 73.1585366,10.170068 73.1073171,10.4081633 C73.0560976,10.6632653 73.0219512,11.0204082 73.0219512,11.4795918 L73.0219512,18.4693878 L69.5219512,18.4693878 L69.5219512,11.4795918 C69.5390244,11.037415 69.504878,10.6802721 69.4365854,10.4421769 C69.3512195,10.2040816 69.2487805,9.96598639 69.1121951,9.72789116 C68.9756098,9.48979592 68.7707317,9.30272109 68.4804878,9.18367347 C68.1902439,9.06462585 67.8146341,8.99659864 67.3365854,8.99659864 C66.8414634,8.99659864 66.4487805,9.06462585 66.1585366,9.18367347 C65.8682927,9.30272109 65.6634146,9.48979592 65.5268293,9.72789116 C65.3902439,9.96598639 65.2878049,10.2210884 65.2365854,10.4591837 C65.1682927,10.7142857 65.1512195,11.0714286 65.1512195,11.5306122 L65.1512195,18.4693878 L65.1170732,18.4693878 Z" id="Path"></path>
                    <path d="M88.3195122,15.7482993 C88.5073171,15.7482993 88.7121951,15.7312925 88.9170732,15.6802721 C89.1219512,15.6462585 89.3097561,15.5782313 89.4804878,15.4931973 C89.6512195,15.4081633 89.7878049,15.2891156 89.8902439,15.1530612 C90.0097561,15.0170068 90.0609756,14.8469388 90.0609756,14.6598639 C90.0609756,14.4557823 89.9926829,14.2857143 89.8731707,14.1496599 C89.7536585,14.0136054 89.5829268,13.9115646 89.3780488,13.8095238 C89.1731707,13.707483 88.9341463,13.6394558 88.6439024,13.5714286 C88.3707317,13.5034014 88.0804878,13.4353741 87.7560976,13.3673469 C87.2780488,13.2653061 86.7829268,13.1462585 86.2878049,13.0272109 C85.7926829,12.8911565 85.3487805,12.7040816 84.9390244,12.4489796 C84.5292683,12.1938776 84.204878,11.8537415 83.9487805,11.4285714 C83.6926829,11.0034014 83.5731707,10.4591837 83.5731707,9.76190476 C83.5731707,9.08163265 83.7268293,8.46938776 84.0170732,7.97619048 C84.3073171,7.46598639 84.6829268,7.05782313 85.1609756,6.71768707 C85.6219512,6.39455782 86.1512195,6.15646259 86.7487805,5.98639456 C87.3463415,5.83333333 87.9439024,5.76530612 88.5414634,5.78231293 C89.2926829,5.79931973 90.0780488,5.85034014 90.8804878,5.91836735 C91.6829268,5.98639456 92.4341463,6.08843537 93.1170732,6.20748299 L93.1170732,8.94557823 C92.2463415,8.86054422 91.5121951,8.79251701 90.897561,8.7244898 C90.2829268,8.67346939 89.8902439,8.63945578 89.6853659,8.63945578 C89.497561,8.62244898 89.3097561,8.60544218 89.1219512,8.60544218 C88.9341463,8.60544218 88.7292683,8.58843537 88.5243902,8.58843537 C88.2,8.58843537 87.8756098,8.67346939 87.5341463,8.82653061 C87.2097561,8.97959184 87.0390244,9.23469388 87.0390244,9.57482993 C87.0390244,9.72789116 87.1073171,9.86394558 87.2268293,9.96598639 C87.3463415,10.0680272 87.5,10.1530612 87.6878049,10.2380952 C87.8756098,10.3231293 88.097561,10.3911565 88.3536585,10.4591837 C88.6097561,10.5272109 88.8829268,10.5952381 89.1560976,10.6462585 C89.6341463,10.7482993 90.1292683,10.8673469 90.6414634,11.0204082 C91.1536585,11.1734694 91.6146341,11.377551 92.0414634,11.6496599 C92.4682927,11.9217687 92.8097561,12.2789116 93.0829268,12.7380952 C93.3560976,13.1802721 93.4926829,13.7585034 93.4926829,14.4727891 C93.4926829,15.2210884 93.3219512,15.8333333 92.997561,16.3265306 C92.6731707,16.8197279 92.2463415,17.2278912 91.7341463,17.5340136 C91.2219512,17.8401361 90.6414634,18.0612245 90.0097561,18.1972789 C89.3780488,18.3503401 88.7634146,18.4353741 88.1829268,18.5034014 C88.0634146,18.5204082 87.9268293,18.5204082 87.7731707,18.5204082 C87.6195122,18.5204082 87.5,18.5204082 87.3634146,18.5204082 C86.7317073,18.5204082 86.0829268,18.4863946 85.4170732,18.4183673 C84.7512195,18.3503401 84.1707317,18.2653061 83.6585366,18.1802721 L83.6585366,15.4251701 C84.0170732,15.4591837 84.4097561,15.4931973 84.8195122,15.5442177 C85.2292683,15.5782313 85.5536585,15.6122449 85.7926829,15.6292517 C86.1341463,15.6632653 86.4073171,15.6972789 86.6292683,15.7142857 C86.8341463,15.7312925 87.004878,15.7482993 87.1243902,15.7653061 C87.2780488,15.7823129 87.4658537,15.7993197 87.6707317,15.7993197 C87.9439024,15.7482993 88.1317073,15.7482993 88.3195122,15.7482993 Z" id="Path"></path>
                    <path d="M103.531707,18.4693878 C103.463415,18.2993197 103.412195,18.1292517 103.378049,17.9591837 C103.343902,17.7891156 103.309756,17.5680272 103.27561,17.2959184 C102.797561,17.7891156 102.25122,18.1462585 101.636585,18.3333333 C101.039024,18.537415 100.356098,18.6394558 99.6219512,18.6394558 C99.0243902,18.6054422 98.4439024,18.537415 97.8804878,18.4183673 C97.3341463,18.2993197 96.8390244,18.1122449 96.4121951,17.8061224 C95.9853659,17.5170068 95.6609756,17.1088435 95.404878,16.5986395 C95.1487805,16.0884354 95.0292683,15.4251701 95.0292683,14.6258503 C95.0292683,13.6394558 95.2853659,12.8401361 95.8146341,12.1938776 C96.3439024,11.547619 96.9926829,11.0714286 97.7780488,10.7823129 C98.3414634,10.5612245 98.9390244,10.4081633 99.5707317,10.3401361 C100.185366,10.2721088 100.782927,10.2380952 101.363415,10.2380952 L102.814634,10.2380952 L103.27561,10.2210884 C103.190244,9.69387755 102.917073,9.28571429 102.473171,9.01360544 C102.029268,8.7414966 101.55122,8.58843537 101.056098,8.55442177 C100.868293,8.53741497 100.646341,8.53741497 100.42439,8.53741497 C100.185366,8.53741497 99.9804878,8.57142857 99.7926829,8.60544218 C99.5536585,8.62244898 99.0756098,8.69047619 98.3585366,8.79251701 C97.6414634,8.91156463 96.7707317,9.04761905 95.7292683,9.21768707 L95.7292683,6.42857143 C96.0536585,6.32653061 96.4292683,6.2414966 96.8560976,6.15646259 C97.2829268,6.07142857 97.7268293,6.02040816 98.204878,5.96938776 C98.6829268,5.91836735 99.1609756,5.86734694 99.6731707,5.83333333 C100.168293,5.79931973 100.663415,5.78231293 101.158537,5.78231293 C101.892683,5.83333333 102.490244,5.91836735 103.002439,6.05442177 C103.497561,6.19047619 103.92439,6.34353741 104.265854,6.56462585 C104.607317,6.76870748 104.897561,7.00680272 105.136585,7.24489796 C105.37561,7.5 105.580488,7.75510204 105.768293,8.02721088 C106.109756,8.58843537 106.331707,9.18367347 106.4,9.77891156 C106.485366,10.3741497 106.519512,10.9013605 106.519512,11.3605442 L106.536585,16.5816327 L106.536585,17.0748299 C106.519512,17.2619048 106.536585,17.4659864 106.604878,17.6870748 C106.656098,17.9081633 106.758537,18.1632653 106.878049,18.452381 L103.531707,18.452381 L103.531707,18.4693878 Z M103.121951,12.8401361 L102.763415,12.8401361 C102.319512,12.8401361 101.858537,12.8401361 101.397561,12.8571429 C100.936585,12.8741497 100.441463,12.9251701 99.9463415,13.0102041 C99.5195122,13.0782313 99.1097561,13.2142857 98.7512195,13.4183673 C98.3756098,13.622449 98.1878049,13.9795918 98.1878049,14.4897959 C98.2731707,15.0510204 98.3926829,15.4081633 98.5463415,15.5272109 C98.6487805,15.6122449 98.7512195,15.6802721 98.8365854,15.7312925 C98.9390244,15.7823129 99.0243902,15.8333333 99.1097561,15.8673469 C99.297561,15.952381 99.4682927,16.0204082 99.6219512,16.0544218 C99.7756098,16.0884354 100.014634,16.1054422 100.321951,16.1054422 C101.295122,16.0714286 101.995122,15.7823129 102.439024,15.2380952 C102.882927,14.6938776 103.104878,14.0306122 103.104878,13.2653061 L103.104878,12.8401361 L103.121951,12.8401361 Z" id="Shape"></path>
                </g>
                <path d="M65.202439,25.2891156 L62.6585366,25.2891156 C62.6585366,25.2891156 73.295122,17.7040816 75.9756098,16.2244898 C78.6390244,14.7278912 76.5219512,18.0102041 76.5219512,18.0102041 C76.5219512,18.0102041 66.0560976,24.4897959 65.202439,25.2891156 Z" id="Path" fill="#941D20" fill-rule="nonzero"></path>
                <path d="M109.626829,41.1394558 L115.192683,41.1394558 C115.192683,41.1394558 132.504878,4.96598639 116.643902,0.680272109 C116.643902,0.680272109 99.8097561,-5.85034014 62.6585366,25.2891156 C62.6585366,25.2891156 94.4146341,1.98979592 108.278049,9.72789116 C121.834146,17.2789116 109.626829,41.1394558 109.626829,41.1394558 Z" id="Path" fill="#CB2630" fill-rule="nonzero"></path>
                <path d="M108.636585,30.7823129 L108.636585,28.8945578 L109.473171,28.8945578 C109.643902,28.8945578 109.763415,28.9115646 109.84878,28.9455782 C109.934146,28.9795918 110.002439,29.047619 110.053659,29.1326531 C110.104878,29.2176871 110.139024,29.3027211 110.139024,29.4217687 C110.139024,29.5578231 110.087805,29.6598639 110.002439,29.7619048 C109.917073,29.8469388 109.780488,29.914966 109.592683,29.9319728 C109.660976,29.9659864 109.712195,30 109.746341,30.0340136 C109.814634,30.1020408 109.882927,30.1870748 109.95122,30.2891156 L110.27561,30.7993197 L109.968293,30.7993197 L109.712195,30.4081633 C109.643902,30.2891156 109.57561,30.2040816 109.52439,30.1530612 C109.473171,30.1020408 109.439024,30.0510204 109.404878,30.0340136 C109.370732,30.0170068 109.336585,30 109.285366,29.9829932 C109.25122,29.9829932 109.217073,29.9659864 109.14878,29.9659864 L108.858537,29.9659864 L108.858537,30.7993197 L108.636585,30.7993197 L108.636585,30.7823129 Z M108.87561,29.7278912 L109.404878,29.7278912 C109.52439,29.7278912 109.609756,29.7108844 109.678049,29.6938776 C109.746341,29.6768707 109.797561,29.6258503 109.814634,29.5748299 C109.84878,29.5238095 109.865854,29.4727891 109.865854,29.4047619 C109.865854,29.3197279 109.831707,29.2517007 109.763415,29.1836735 C109.695122,29.1326531 109.592683,29.0986395 109.456098,29.0986395 L108.858537,29.0986395 L108.858537,29.7278912 L108.87561,29.7278912 Z" id="Shape" fill="#54565A" fill-rule="nonzero"></path>
                <path d="M111.197561,29.829932 C111.197561,30.8503401 110.360976,31.6836735 109.336585,31.6836735 C108.312195,31.6836735 107.47561,30.8503401 107.47561,29.829932 C107.47561,28.8095238 108.312195,27.9761905 109.336585,27.9761905 C110.360976,27.9761905 111.197561,28.8095238 111.197561,29.829932 Z" id="Path" stroke="#54565A" stroke-width="0.1194"></path>
            </g>
        </g>
    </g>
</svg>